<?xml version="1.0" encoding="utf-8"?>
<!-- Generator: Adobe Illustrator 16.0.3, SVG Export Plug-In . SVG Version: 6.00 Build 0)  -->
<!DOCTYPE svg PUBLIC "-//W3C//DTD SVG 1.1//EN" "http://www.w3.org/Graphics/SVG/1.1/DTD/svg11.dtd">
<svg version="1.1" id="Capa_1" xmlns="http://www.w3.org/2000/svg" xmlns:xlink="http://www.w3.org/1999/xlink" x="0px" y="0px"
	 width="125px" height="125px" viewBox="0 0 125 125" enable-background="new 0 0 125 125" xml:space="preserve">
<g>
	<linearGradient id="SVGID_1_" gradientUnits="userSpaceOnUse" x1="61.6929" y1="39.1221" x2="61.6929" y2="95.7952">
		<stop  offset="0" style="stop-color:#BBBDBF"/>
		<stop  offset="1" style="stop-color:#6D6E70"/>
	</linearGradient>
	<path fill-rule="evenodd" clip-rule="evenodd" fill="url(#SVGID_1_)" d="M36.152,56.186v52.134l51.02-4.438l0.063-41.879
		L36.152,56.186z M58.45,100.749l-14.886,0.969V82.477H58.45V100.749z M58.512,76.882l-15.009-0.708
		c0-8.54-1.422-14.842,15.009-12.865V76.882z M79.945,99.258l-13.651,0.932V82.513h13.651V99.258z M79.945,77.591l-13.651-0.447
		V64.091C80.315,65.023,80.008,69.61,79.945,77.591z"/>
	<linearGradient id="SVGID_2_" gradientUnits="userSpaceOnUse" x1="48.4346" y1="100.5928" x2="92.2186" y2="19.9379">
		<stop  offset="0" style="stop-color:#BBBDBF"/>
		<stop  offset="1" style="stop-color:#6D6E70"/>
	</linearGradient>
	<path fill-rule="evenodd" clip-rule="evenodd" fill="url(#SVGID_2_)" d="M42.444,73.708c-0.043-3.797,0.022-7.073,2.207-9.287
		c1.694-1.716,4.393-2.515,8.495-2.515c1.588,0,3.436,0.126,5.49,0.373l0.914,0.109v15.58l-3.832-0.181
		c3.248,1.229,6.434,2.593,9.539,4.106v-0.419h15.726v9.746c1.759,1.238,3.479,2.526,5.166,3.858l0.047-32.151l-49.006-5.581v15.224
		C38.955,72.908,40.706,73.288,42.444,73.708z M65.257,62.982l1.106,0.074c14.734,0.979,14.689,6.198,14.623,14.098l-0.012,1.508
		l-15.718-0.516V62.982z"/>
	<linearGradient id="SVGID_3_" gradientUnits="userSpaceOnUse" x1="62.4746" y1="-10.5615" x2="62.4746" y2="87.1368">
		<stop  offset="0" style="stop-color:#28A2C9"/>
		<stop  offset="1" style="stop-color:#1765A7"/>
	</linearGradient>
	<polygon fill-rule="evenodd" clip-rule="evenodd" fill="url(#SVGID_3_)" points="104.836,106.102 104.836,57.101 116.138,57.101 
		99.967,44.624 99.967,32.502 87.889,32.502 87.889,35.306 62.742,15.904 9.297,57.101 20.599,57.101 20.599,106.102 4.108,106.102 
		4.108,108.483 32.696,108.483 32.696,55.372 62.742,33.196 92.739,55.372 92.739,108.483 120.842,108.483 120.842,106.102 	"/>
	<linearGradient id="SVGID_4_" gradientUnits="userSpaceOnUse" x1="54.0747" y1="111.1787" x2="94.0419" y2="13.1604">
		<stop  offset="0" style="stop-color:#28A2C9"/>
		<stop  offset="1" style="stop-color:#1765A7"/>
	</linearGradient>
	<path fill-rule="evenodd" clip-rule="evenodd" fill="url(#SVGID_4_)" d="M21.637,70.718c3.38,0.157,6.718,0.486,10.021,0.944
		V54.849l31.084-22.942l31.033,22.942v46.814c1.979,1.864,3.9,3.786,5.744,5.783h20.286v-0.308h-16.007V56.063h9.297L98.93,45.133
		V33.539H88.926v3.877L62.742,17.214L12.341,56.063h9.295V70.718z"/>
</g>
</svg>
