<?xml version="1.0" encoding="utf-8"?>
<!-- Generator: Adobe Illustrator 16.0.3, SVG Export Plug-In . SVG Version: 6.00 Build 0)  -->
<!DOCTYPE svg PUBLIC "-//W3C//DTD SVG 1.1//EN" "http://www.w3.org/Graphics/SVG/1.1/DTD/svg11.dtd">
<svg version="1.1" id="Capa_1" xmlns="http://www.w3.org/2000/svg" xmlns:xlink="http://www.w3.org/1999/xlink" x="0px" y="0px"
	 width="250px" height="250px" viewBox="0 0 250 250" enable-background="new 0 0 250 250" xml:space="preserve">
<path fill="#353B40" d="M125,198.855L125,198.855c-2.84,0-5.163-2.322-5.163-5.162v-81.975c0-2.841,2.323-5.165,5.163-5.165l0,0
	c2.839,0,5.166,2.324,5.166,5.165v81.975C130.166,196.533,127.84,198.855,125,198.855z"/>
<polygon fill="#353B40" points="125.425,24.935 66.997,71.84 89.957,146.775 162.572,146.182 184.492,70.879 "/>
<path fill="#353B40" d="M170.984,162.629h-90.48c-3.592,0-6.531-2.939-6.531-6.531l0,0c0-3.594,2.939-6.531,6.531-6.531h90.48
	c3.592,0,6.531,2.938,6.531,6.531l0,0C177.516,159.689,174.576,162.629,170.984,162.629z"/>
<g>
	<path fill="#353B40" d="M57.253,72.532c-3.208,0-6.198-2.031-7.269-5.242c-1.187-3.562,0.387-7.378,3.559-9.129
		c4.429-3.014,43.314-33.668,67.12-52.549c2.784-2.209,6.726-2.211,9.515-0.006L197.5,58.857c3.32,2.626,3.883,7.444,1.258,10.764
		c-2.625,3.318-7.443,3.881-10.764,1.256L125.43,21.39C62.661,71.143,61.277,71.604,59.677,72.136
		C58.874,72.404,58.057,72.532,57.253,72.532z M54.818,57.603c-0.002,0-0.004,0.001-0.005,0.001
		C54.814,57.604,54.816,57.604,54.818,57.603z M54.832,57.599c-0.003,0-0.008,0.002-0.011,0.003
		C54.824,57.601,54.828,57.6,54.832,57.599z"/>
</g>
<g>
	<path fill="#7B7B84" d="M149.172,92.682c0,13.344-10.816,24.177-24.174,24.177c-1.146,0-2.264-0.072-3.365-0.232
		c-11.748-1.639-20.797-11.748-20.797-23.945s9.049-22.306,20.797-23.945c1.102-0.159,2.22-0.233,3.365-0.233
		C138.355,68.503,149.172,79.339,149.172,92.682z"/>
	<path fill="#E7E5E8" d="M142.414,92.682c0,12.197-9.035,22.292-20.782,23.945c-11.748-1.639-20.797-11.748-20.797-23.945
		s9.049-22.306,20.797-23.945C133.379,70.389,142.414,80.484,142.414,92.682z"/>
</g>
<g>
	<path fill="#353B3F" d="M54.027,206.639h11.25v2.813h-2.813v16.172h2.813v2.813h-11.25v-2.813h2.813v-16.172h-2.813V206.639z"/>
	<path fill="#353B3F" d="M79.093,211.912c1.371,0,2.533,0.346,3.485,1.041c0.952,0.693,1.661,1.668,2.127,2.918
		c0.466,1.252,0.699,2.746,0.699,4.486c0,1.271-0.176,2.438-0.527,3.494c-0.352,1.059-0.836,1.945-1.455,2.662
		c-0.618,0.719-1.356,1.277-2.215,1.676s-1.792,0.598-2.799,0.598c-0.469,0-0.92-0.041-1.354-0.123s-0.812-0.184-1.134-0.305
		c-0.322-0.119-0.637-0.273-0.945-0.461s-0.563-0.359-0.765-0.518s-0.404-0.346-0.606-0.563s-0.352-0.387-0.448-0.51
		s-0.204-0.268-0.321-0.432l-1.714,2.559h-2.329v-18.984h-1.758v-2.813h6.68v8.262c0.24-0.416,0.521-0.797,0.844-1.143
		s0.702-0.66,1.138-0.945c0.437-0.283,0.945-0.506,1.525-0.664S78.425,211.912,79.093,211.912z M73.714,223.17
		c0.311,0.721,0.715,1.295,1.213,1.719c0.498,0.426,1.087,0.637,1.767,0.637c1.16,0,2.023-0.453,2.588-1.361
		s0.848-2.197,0.848-3.867c0-0.785-0.092-1.51-0.277-2.176c-0.185-0.664-0.431-1.217-0.738-1.656s-0.661-0.781-1.059-1.025
		c-0.398-0.242-0.814-0.363-1.248-0.363c-0.645,0-1.211,0.197-1.701,0.592c-0.489,0.396-0.954,0.986-1.393,1.771V223.17z"/>
	<path fill="#353B3F" d="M92.417,221.404c0.053,0.68,0.164,1.285,0.334,1.818s0.376,0.971,0.62,1.311s0.526,0.619,0.848,0.838
		c0.322,0.221,0.653,0.377,0.993,0.467c0.34,0.092,0.703,0.137,1.09,0.137c1.236,0,2.202-0.238,2.896-0.717
		c0.695-0.477,1.25-1.215,1.666-2.211l2.338,0.809c-0.211,0.568-0.479,1.104-0.805,1.604c-0.324,0.502-0.716,0.963-1.173,1.385
		s-0.966,0.785-1.525,1.086c-0.56,0.303-1.191,0.537-1.894,0.707s-1.444,0.256-2.224,0.256c-1.154,0-2.246-0.203-3.274-0.607
		s-1.922-0.967-2.681-1.691c-0.759-0.723-1.359-1.615-1.802-2.676s-0.664-2.215-0.664-3.463s0.221-2.408,0.664-3.48
		s1.043-1.977,1.802-2.713c0.759-0.734,1.652-1.311,2.681-1.727s2.12-0.623,3.274-0.623s2.246,0.207,3.274,0.623
		c1.028,0.416,1.921,0.992,2.68,1.727c0.759,0.736,1.359,1.641,1.803,2.713c0.441,1.072,0.663,2.232,0.663,3.48l-0.22,0.949H92.417z
		 M92.479,218.592h6.205c-0.152-1.348-0.489-2.33-1.011-2.945s-1.213-0.922-2.074-0.922c-0.428,0-0.812,0.068-1.151,0.205
		c-0.34,0.139-0.645,0.359-0.914,0.66c-0.27,0.303-0.494,0.703-0.672,1.203C92.683,217.295,92.555,217.895,92.479,218.592z"/>
	<path fill="#353B3F" d="M105.408,212.264h5.458l1.107,2.135c1.037-1.658,2.505-2.486,4.403-2.486c1.271,0,2.28,0.391,3.028,1.172
		c0.746,0.783,1.12,1.799,1.12,3.047c0,0.779-0.274,1.443-0.821,1.99c-0.549,0.549-1.212,0.822-1.991,0.822
		s-1.443-0.273-1.991-0.822c-0.548-0.547-0.821-1.211-0.821-1.99c0-0.316,0.05-0.621,0.149-0.914
		c-0.158-0.094-0.325-0.141-0.501-0.141c-0.393,0-0.799,0.256-1.218,0.768c-0.419,0.514-0.821,1.279-1.208,2.299l-0.035,7.48h3.867
		v2.813h-10.547v-2.813h1.758v-10.547h-1.758V212.264z"/>
	<path fill="#353B3F" d="M141.618,206.287c3.076,0,5.537,0.82,7.383,2.461c0.756,0.668,1.296,1.34,1.622,2.016
		c0.324,0.678,0.487,1.529,0.487,2.555c0,0.779-0.274,1.443-0.821,1.99c-0.549,0.549-1.212,0.822-1.991,0.822
		s-1.443-0.273-1.991-0.822c-0.548-0.547-0.821-1.211-0.821-1.99c0-0.398,0.079-0.775,0.237-1.131
		c0.158-0.354,0.378-0.662,0.659-0.926c-0.422-0.785-0.992-1.342-1.71-1.67s-1.618-0.492-2.702-0.492
		c-0.709,0-1.366,0.143-1.974,0.43c-0.605,0.287-1.131,0.689-1.572,1.205c-0.443,0.516-0.822,1.125-1.139,1.828
		s-0.553,1.475-0.707,2.314c-0.156,0.842-0.233,1.729-0.233,2.66c0,0.92,0.094,1.805,0.281,2.654s0.46,1.623,0.817,2.32
		s0.776,1.305,1.257,1.822c0.48,0.52,1.032,0.922,1.657,1.209c0.623,0.287,1.278,0.432,1.964,0.432c0.996,0,1.923-0.268,2.782-0.801
		c0.857-0.533,1.569-1.281,2.135-2.246c0.565-0.963,0.919-2.057,1.06-3.281l2.813,0.703c-0.141,0.686-0.305,1.322-0.492,1.91
		c-0.188,0.59-0.422,1.176-0.703,1.758c-0.281,0.584-0.601,1.109-0.958,1.578s-0.779,0.906-1.266,1.311s-1.022,0.742-1.608,1.014
		c-0.586,0.273-1.257,0.486-2.013,0.639s-1.573,0.229-2.452,0.229c-1.049,0-2.05-0.111-3.001-0.33
		c-0.953-0.221-1.814-0.525-2.584-0.918c-0.771-0.393-1.481-0.861-2.132-1.406s-1.213-1.148-1.688-1.807
		c-0.475-0.66-0.878-1.359-1.208-2.102c-0.332-0.74-0.579-1.504-0.743-2.293c-0.164-0.787-0.246-1.586-0.246-2.395
		s0.082-1.607,0.246-2.396c0.164-0.787,0.411-1.551,0.743-2.293c0.33-0.74,0.733-1.441,1.208-2.102
		c0.475-0.658,1.037-1.26,1.688-1.805s1.36-1.014,2.132-1.406c0.77-0.393,1.631-0.699,2.584-0.92
		C139.568,206.396,140.569,206.287,141.618,206.287z"/>
	<path fill="#353B3F" d="M167.634,217.844v7.779h1.758v2.813h-5.476l-0.782-1.828c-0.598,0.855-1.291,1.441-2.079,1.758
		s-1.888,0.475-3.3,0.475c-0.732,0-1.414-0.129-2.044-0.383c-0.63-0.256-1.166-0.602-1.607-1.041
		c-0.443-0.439-0.789-0.967-1.037-1.582c-0.25-0.615-0.374-1.275-0.374-1.979c0-1.213,0.475-2.219,1.424-3.02
		c0.949-0.799,2.162-1.199,3.639-1.199c1.189,0,2.174,0.113,2.953,0.338c0.779,0.227,1.447,0.586,2.004,1.078v-3.727
		c0-0.527-0.072-0.969-0.216-1.324c-0.144-0.354-0.358-0.625-0.646-0.816c-0.287-0.189-0.609-0.324-0.967-0.4
		s-0.785-0.113-1.283-0.113c-0.398,0-0.759,0.084-1.081,0.254c0.182,0.381,0.272,0.783,0.272,1.205c0,0.779-0.274,1.443-0.821,1.99
		c-0.549,0.549-1.212,0.822-1.991,0.822s-1.443-0.273-1.991-0.822c-0.548-0.547-0.821-1.211-0.821-1.99
		c0-0.398,0.077-0.773,0.233-1.125c0.154-0.352,0.37-0.66,0.646-0.924c0.234-0.246,0.478-0.467,0.729-0.664
		c0.252-0.195,0.569-0.391,0.953-0.588c0.384-0.195,0.802-0.359,1.253-0.488s0.991-0.232,1.622-0.313
		c0.629-0.078,1.319-0.117,2.069-0.117c0.973,0,1.887,0.143,2.742,0.43s1.594,0.686,2.215,1.195s1.11,1.137,1.468,1.881
		S167.634,216.971,167.634,217.844z M162.712,224.533v-1.213c-0.363-0.346-0.772-0.639-1.226-0.875
		c-0.455-0.238-0.875-0.355-1.262-0.355c-0.832,0-1.418,0.139-1.758,0.416c-0.34,0.279-0.51,0.729-0.51,1.35
		c0,0.744,0.146,1.293,0.439,1.645s0.838,0.527,1.635,0.527c0.451,0,0.921-0.146,1.41-0.436
		C161.931,225.301,162.354,224.949,162.712,224.533z"/>
	<path fill="#353B3F" d="M176.142,225.631c0.334,0.229,0.838,0.344,1.512,0.344c0.604,0,1.095-0.035,1.472-0.105
		c0.379-0.07,0.664-0.186,0.857-0.348c0.193-0.16,0.322-0.34,0.387-0.537c0.064-0.195,0.097-0.451,0.097-0.768
		c0-0.375-0.1-0.697-0.299-0.967s-0.469-0.486-0.809-0.65s-0.729-0.309-1.169-0.436c-0.439-0.125-0.902-0.246-1.389-0.361
		c-0.486-0.113-0.973-0.238-1.459-0.377c-0.486-0.137-0.949-0.318-1.389-0.545c-0.439-0.225-0.829-0.492-1.169-0.801
		c-0.34-0.307-0.609-0.707-0.809-1.199s-0.299-1.057-0.299-1.695c0-0.586,0.07-1.119,0.211-1.6s0.328-0.889,0.563-1.227
		c0.234-0.336,0.53-0.631,0.888-0.883s0.73-0.455,1.121-0.607c0.389-0.152,0.828-0.275,1.318-0.369
		c0.488-0.094,0.962-0.156,1.419-0.189c0.457-0.031,0.955-0.047,1.494-0.047c1.172,0,2.195,0.148,3.071,0.447
		s1.566,0.701,2.07,1.205c0.27,0.229,0.479,0.504,0.629,0.83c0.148,0.324,0.224,0.67,0.224,1.033c0,0.68-0.24,1.26-0.721,1.74
		s-1.061,0.721-1.74,0.721s-1.26-0.24-1.74-0.721s-0.721-1.061-0.721-1.74c0-0.246,0.035-0.484,0.105-0.713
		c-0.334-0.229-0.838-0.342-1.512-0.342c-0.826,0-1.443,0.1-1.851,0.299s-0.61,0.568-0.61,1.107c0,0.34,0.085,0.641,0.255,0.9
		c0.17,0.262,0.401,0.475,0.694,0.641c0.293,0.168,0.634,0.326,1.024,0.475c0.389,0.15,0.804,0.277,1.243,0.379
		c0.439,0.104,0.891,0.227,1.354,0.373s0.914,0.297,1.354,0.449s0.854,0.354,1.243,0.602c0.39,0.25,0.731,0.529,1.024,0.84
		s0.524,0.697,0.694,1.164c0.17,0.465,0.255,0.986,0.255,1.561c0,0.82-0.136,1.541-0.409,2.166c-0.271,0.623-0.636,1.129-1.09,1.516
		s-1.018,0.703-1.691,0.945c-0.674,0.244-1.374,0.412-2.101,0.506s-1.535,0.141-2.426,0.141c-1.799,0-3.247-0.344-4.347-1.029
		c-1.098-0.686-1.647-1.631-1.647-2.838c0-0.68,0.24-1.26,0.721-1.74s1.061-0.721,1.74-0.721s1.26,0.24,1.74,0.721
		s0.721,1.061,0.721,1.74C176.247,225.166,176.212,225.402,176.142,225.631z"/>
	<path fill="#353B3F" d="M201.911,217.844v7.779h1.758v2.813h-5.476l-0.782-1.828c-0.598,0.855-1.291,1.441-2.079,1.758
		s-1.888,0.475-3.3,0.475c-0.732,0-1.414-0.129-2.044-0.383c-0.63-0.256-1.166-0.602-1.607-1.041
		c-0.443-0.439-0.789-0.967-1.037-1.582c-0.25-0.615-0.374-1.275-0.374-1.979c0-1.213,0.475-2.219,1.424-3.02
		c0.949-0.799,2.162-1.199,3.639-1.199c1.189,0,2.174,0.113,2.953,0.338c0.779,0.227,1.447,0.586,2.004,1.078v-3.727
		c0-0.527-0.072-0.969-0.216-1.324c-0.144-0.354-0.358-0.625-0.646-0.816c-0.287-0.189-0.609-0.324-0.967-0.4
		s-0.785-0.113-1.283-0.113c-0.398,0-0.759,0.084-1.081,0.254c0.182,0.381,0.272,0.783,0.272,1.205c0,0.779-0.274,1.443-0.821,1.99
		c-0.549,0.549-1.212,0.822-1.991,0.822s-1.443-0.273-1.991-0.822c-0.548-0.547-0.821-1.211-0.821-1.99
		c0-0.398,0.077-0.773,0.233-1.125c0.154-0.352,0.37-0.66,0.646-0.924c0.234-0.246,0.478-0.467,0.729-0.664
		c0.252-0.195,0.569-0.391,0.953-0.588c0.384-0.195,0.802-0.359,1.253-0.488s0.991-0.232,1.622-0.313
		c0.629-0.078,1.319-0.117,2.069-0.117c0.973,0,1.887,0.143,2.742,0.43s1.594,0.686,2.215,1.195s1.11,1.137,1.468,1.881
		S201.911,216.971,201.911,217.844z M196.989,224.533v-1.213c-0.363-0.346-0.772-0.639-1.226-0.875
		c-0.455-0.238-0.875-0.355-1.262-0.355c-0.832,0-1.418,0.139-1.758,0.416c-0.34,0.279-0.51,0.729-0.51,1.35
		c0,0.744,0.146,1.293,0.439,1.645s0.838,0.527,1.635,0.527c0.451,0,0.921-0.146,1.41-0.436
		C196.208,225.301,196.632,224.949,196.989,224.533z"/>
</g>
<g>
</g>
<g>
</g>
<g>
</g>
<g>
</g>
<g>
</g>
<g>
</g>
<g>
</g>
<g>
</g>
</svg>
