<?xml version="1.0" encoding="utf-8"?>
<!-- Generator: Adobe Illustrator 16.0.3, SVG Export Plug-In . SVG Version: 6.00 Build 0)  -->
<!DOCTYPE svg PUBLIC "-//W3C//DTD SVG 1.1//EN" "http://www.w3.org/Graphics/SVG/1.1/DTD/svg11.dtd">
<svg version="1.1" id="Capa_1" xmlns="http://www.w3.org/2000/svg" xmlns:xlink="http://www.w3.org/1999/xlink" x="0px" y="0px"
	 width="250px" height="250px" viewBox="0 0 250 250" enable-background="new 0 0 250 250" xml:space="preserve">
<path fill="#CBC4BF" d="M125,198.855L125,198.855c-2.84,0-5.163-2.322-5.163-5.162v-81.976c0-2.841,2.323-5.165,5.163-5.165l0,0
	c2.839,0,5.166,2.324,5.166,5.165v81.976C130.166,196.533,127.84,198.855,125,198.855z"/>
<polygon fill="#CBC4BF" points="125.425,24.935 66.997,71.84 89.957,146.775 162.572,146.182 184.492,70.879 "/>
<path fill="#CBC4BF" d="M170.984,162.629h-90.48c-3.592,0-6.531-2.939-6.531-6.531l0,0c0-3.594,2.939-6.531,6.531-6.531h90.48
	c3.592,0,6.531,2.938,6.531,6.531l0,0C177.516,159.689,174.576,162.629,170.984,162.629z"/>
<g>
	<path fill="#CBC4BF" d="M57.253,72.532c-3.208,0-6.198-2.031-7.269-5.242c-1.187-3.562,0.387-7.378,3.559-9.129
		c4.429-3.014,43.314-33.668,67.12-52.549c2.784-2.209,6.726-2.211,9.515-0.006L197.5,58.857c3.32,2.626,3.883,7.444,1.258,10.764
		c-2.625,3.318-7.443,3.881-10.764,1.256L125.43,21.39C62.661,71.143,61.277,71.604,59.677,72.136
		C58.874,72.404,58.057,72.532,57.253,72.532z M54.818,57.603c-0.002,0-0.004,0.001-0.005,0.001
		C54.814,57.604,54.816,57.604,54.818,57.603z M54.832,57.599c-0.003,0-0.008,0.002-0.011,0.003
		C54.824,57.601,54.828,57.6,54.832,57.599z"/>
</g>
<g>
	<path fill="#84847B" d="M149.172,92.682c0,13.344-10.816,24.177-24.174,24.177c-1.146,0-2.264-0.072-3.365-0.232
		c-11.748-1.639-20.797-11.748-20.797-23.945c0-12.197,9.049-22.306,20.797-23.945c1.102-0.159,2.22-0.233,3.365-0.233
		C138.355,68.503,149.172,79.339,149.172,92.682z"/>
	<path fill="#181912" d="M142.414,92.682c0,12.197-9.035,22.292-20.782,23.945c-11.748-1.639-20.797-11.748-20.797-23.945
		c0-12.197,9.049-22.306,20.797-23.945C133.379,70.389,142.414,80.484,142.414,92.682z"/>
</g>
<g enable-background="new    ">
	<path fill="#CBC4C0" d="M54.027,206.639h11.25v2.813h-2.813v16.172h2.813v2.813h-11.25v-2.813h2.813v-16.172h-2.813V206.639z"/>
	<path fill="#CBC4C0" d="M79.094,211.912c1.371,0,2.533,0.348,3.485,1.041c0.952,0.695,1.661,1.668,2.127,2.918
		c0.466,1.252,0.699,2.747,0.699,4.487c0,1.271-0.176,2.437-0.527,3.493c-0.352,1.059-0.836,1.946-1.455,2.664
		s-1.356,1.275-2.215,1.674s-1.792,0.598-2.799,0.598c-0.469,0-0.92-0.041-1.354-0.123s-0.812-0.184-1.134-0.303
		c-0.322-0.12-0.637-0.274-0.945-0.462s-0.563-0.36-0.765-0.519s-0.404-0.346-0.606-0.563s-0.352-0.387-0.448-0.51
		s-0.204-0.267-0.321-0.431l-1.714,2.558h-2.329v-18.984h-1.758v-2.813h6.68v8.262c0.24-0.416,0.521-0.797,0.844-1.143
		s0.702-0.66,1.138-0.945c0.437-0.283,0.945-0.505,1.525-0.663S78.426,211.912,79.094,211.912z M73.715,223.171
		c0.311,0.721,0.715,1.294,1.213,1.718c0.498,0.426,1.087,0.638,1.767,0.638c1.16,0,2.023-0.454,2.588-1.362
		s0.848-2.197,0.848-3.867c0-0.785-0.092-1.51-0.277-2.176c-0.185-0.664-0.431-1.217-0.738-1.656s-0.661-0.78-1.059-1.023
		s-0.814-0.365-1.248-0.365c-0.645,0-1.211,0.197-1.701,0.594c-0.489,0.395-0.954,0.985-1.393,1.771V223.171z"/>
	<path fill="#CBC4C0" d="M92.418,221.404c0.053,0.68,0.164,1.286,0.334,1.819s0.376,0.97,0.62,1.31s0.526,0.619,0.848,0.84
		c0.322,0.219,0.653,0.375,0.993,0.465c0.34,0.092,0.703,0.137,1.09,0.137c1.236,0,2.202-0.238,2.896-0.717
		c0.694-0.477,1.25-1.214,1.666-2.21l2.338,0.809c-0.211,0.568-0.479,1.103-0.804,1.604c-0.325,0.5-0.716,0.962-1.173,1.384
		s-0.965,0.784-1.525,1.085c-0.56,0.303-1.191,0.538-1.894,0.708s-1.444,0.255-2.224,0.255c-1.154,0-2.246-0.202-3.274-0.606
		s-1.922-0.968-2.681-1.692c-0.759-0.723-1.359-1.615-1.802-2.676s-0.664-2.215-0.664-3.463s0.221-2.408,0.664-3.48
		s1.043-1.976,1.802-2.711s1.652-1.312,2.681-1.728s2.12-0.624,3.274-0.624s2.246,0.208,3.274,0.624s1.922,0.992,2.681,1.728
		s1.359,1.639,1.802,2.711s0.664,2.232,0.664,3.48l-0.22,0.949H92.418z M92.479,218.592h6.205c-0.152-1.348-0.489-2.329-1.011-2.944
		s-1.213-0.923-2.074-0.923c-0.428,0-0.812,0.069-1.151,0.207s-0.645,0.357-0.914,0.658c-0.27,0.303-0.494,0.703-0.672,1.205
		C92.683,217.295,92.556,217.895,92.479,218.592z"/>
	<path fill="#CBC4C0" d="M105.408,212.264h5.458l1.107,2.136c1.037-1.658,2.505-2.487,4.403-2.487c1.271,0,2.281,0.391,3.028,1.174
		c0.747,0.781,1.121,1.797,1.121,3.045c0,0.779-0.274,1.443-0.822,1.99c-0.548,0.549-1.211,0.822-1.991,0.822
		s-1.443-0.273-1.991-0.822c-0.548-0.547-0.822-1.211-0.822-1.99c0-0.316,0.05-0.621,0.149-0.914
		c-0.158-0.094-0.325-0.141-0.501-0.141c-0.393,0-0.798,0.257-1.217,0.77s-0.822,1.278-1.208,2.298l-0.035,7.479h3.867v2.813
		h-10.547v-2.813h1.758v-10.547h-1.758V212.264z"/>
	<path fill="#CBC4C0" d="M141.619,206.287c3.076,0,5.537,0.82,7.383,2.461c0.756,0.668,1.297,1.34,1.621,2.018
		c0.326,0.676,0.488,1.527,0.488,2.553c0,0.779-0.273,1.443-0.822,1.99c-0.547,0.549-1.211,0.822-1.99,0.822
		s-1.443-0.273-1.99-0.822c-0.549-0.547-0.822-1.211-0.822-1.99c0-0.398,0.079-0.774,0.237-1.129s0.378-0.664,0.659-0.928
		c-0.422-0.785-0.992-1.342-1.709-1.67c-0.719-0.328-1.619-0.492-2.703-0.492c-0.709,0-1.367,0.144-1.973,0.431
		c-0.607,0.287-1.131,0.688-1.574,1.204c-0.441,0.516-0.821,1.125-1.138,1.828s-0.552,1.476-0.708,2.316
		c-0.154,0.841-0.232,1.727-0.232,2.658c0,0.92,0.094,1.805,0.281,2.654s0.46,1.623,0.817,2.32s0.776,1.305,1.257,1.824
		c0.48,0.518,1.033,0.921,1.656,1.208c0.625,0.287,1.279,0.431,1.965,0.431c0.996,0,1.924-0.267,2.781-0.8
		c0.859-0.533,1.57-1.281,2.137-2.245c0.564-0.964,0.918-2.059,1.059-3.283l2.813,0.703c-0.141,0.686-0.305,1.322-0.492,1.912
		c-0.188,0.588-0.422,1.175-0.703,1.758s-0.601,1.108-0.958,1.577s-0.779,0.905-1.266,1.31s-1.022,0.742-1.608,1.016
		c-0.586,0.271-1.257,0.484-2.013,0.637s-1.573,0.229-2.452,0.229c-1.049,0-2.049-0.109-3.002-0.33
		c-0.951-0.219-1.813-0.525-2.584-0.918c-0.77-0.393-1.48-0.861-2.131-1.406s-1.213-1.146-1.688-1.807
		c-0.475-0.658-0.877-1.358-1.209-2.1c-0.33-0.741-0.578-1.506-0.742-2.295c-0.164-0.787-0.246-1.586-0.246-2.395
		s0.082-1.606,0.246-2.395s0.412-1.553,0.742-2.295c0.332-0.74,0.734-1.441,1.209-2.1c0.475-0.66,1.037-1.262,1.688-1.807
		s1.361-1.014,2.131-1.406c0.771-0.393,1.633-0.699,2.584-0.918C139.57,206.396,140.57,206.287,141.619,206.287z"/>
	<path fill="#CBC4C0" d="M167.635,217.845v7.778h1.758v2.813h-5.476l-0.782-1.828c-0.598,0.855-1.291,1.441-2.078,1.758
		c-0.789,0.316-1.889,0.475-3.301,0.475c-0.732,0-1.414-0.127-2.043-0.383c-0.631-0.254-1.166-0.602-1.609-1.041
		c-0.441-0.439-0.787-0.967-1.037-1.582c-0.248-0.615-0.373-1.274-0.373-1.978c0-1.213,0.475-2.22,1.424-3.019
		c0.949-0.801,2.162-1.2,3.639-1.2c1.189,0,2.174,0.113,2.953,0.339s1.447,0.584,2.004,1.076v-3.727
		c0-0.527-0.072-0.968-0.215-1.322c-0.145-0.354-0.359-0.627-0.646-0.818c-0.287-0.189-0.609-0.323-0.967-0.399
		s-0.785-0.114-1.283-0.114c-0.398,0-0.759,0.085-1.081,0.255c0.182,0.381,0.272,0.782,0.272,1.204c0,0.779-0.273,1.443-0.822,1.99
		c-0.547,0.549-1.211,0.822-1.99,0.822s-1.443-0.273-1.99-0.822c-0.549-0.547-0.822-1.211-0.822-1.99
		c0-0.398,0.078-0.773,0.232-1.125c0.156-0.352,0.371-0.659,0.646-0.923c0.234-0.246,0.478-0.467,0.729-0.663
		s0.569-0.393,0.954-0.59c0.383-0.195,0.801-0.358,1.252-0.487s0.992-0.233,1.621-0.312c0.631-0.08,1.32-0.119,2.07-0.119
		c0.973,0,1.887,0.144,2.742,0.431s1.594,0.686,2.215,1.195s1.11,1.137,1.468,1.881S167.635,216.972,167.635,217.845z
		 M162.713,224.533v-1.213c-0.363-0.346-0.771-0.637-1.227-0.875c-0.453-0.236-0.874-0.355-1.261-0.355
		c-0.832,0-1.418,0.14-1.758,0.418s-0.51,0.728-0.51,1.349c0,0.744,0.146,1.292,0.439,1.644s0.838,0.527,1.635,0.527
		c0.451,0,0.921-0.145,1.411-0.436C161.932,225.303,162.355,224.949,162.713,224.533z"/>
	<path fill="#CBC4C0" d="M176.143,225.632c0.334,0.229,0.838,0.343,1.512,0.343c0.604,0,1.094-0.035,1.473-0.105
		c0.377-0.07,0.663-0.186,0.856-0.348c0.193-0.16,0.322-0.339,0.387-0.535s0.097-0.453,0.097-0.77c0-0.375-0.1-0.697-0.299-0.967
		s-0.469-0.486-0.809-0.65s-0.729-0.309-1.169-0.436c-0.439-0.125-0.902-0.246-1.389-0.359c-0.486-0.115-0.973-0.24-1.459-0.379
		c-0.486-0.137-0.949-0.318-1.389-0.545c-0.439-0.225-0.829-0.492-1.169-0.799c-0.34-0.309-0.609-0.708-0.809-1.2
		s-0.299-1.058-0.299-1.696c0-0.586,0.07-1.119,0.211-1.6s0.328-0.889,0.563-1.227c0.234-0.336,0.53-0.631,0.888-0.883
		s0.731-0.454,1.12-0.606c0.391-0.152,0.83-0.275,1.318-0.369c0.49-0.094,0.963-0.156,1.42-0.188s0.955-0.049,1.494-0.049
		c1.172,0,2.195,0.149,3.072,0.448c0.875,0.299,1.565,0.7,2.069,1.204c0.27,0.229,0.479,0.506,0.628,0.83
		c0.15,0.326,0.225,0.67,0.225,1.033c0,0.68-0.24,1.26-0.721,1.74s-1.061,0.721-1.74,0.721s-1.26-0.24-1.74-0.721
		s-0.721-1.061-0.721-1.74c0-0.246,0.035-0.483,0.105-0.712c-0.334-0.229-0.838-0.343-1.512-0.343c-0.826,0-1.443,0.1-1.85,0.299
		c-0.408,0.199-0.611,0.568-0.611,1.107c0,0.34,0.085,0.641,0.255,0.9c0.17,0.262,0.401,0.475,0.694,0.643
		c0.293,0.166,0.635,0.324,1.023,0.475c0.39,0.148,0.805,0.275,1.244,0.377c0.439,0.104,0.891,0.228,1.354,0.374
		s0.914,0.296,1.354,0.448s0.854,0.354,1.244,0.602c0.389,0.25,0.73,0.529,1.023,0.84s0.524,0.699,0.694,1.164
		c0.17,0.467,0.255,0.986,0.255,1.561c0,0.82-0.137,1.543-0.408,2.166c-0.273,0.625-0.637,1.13-1.09,1.517
		c-0.455,0.387-1.019,0.702-1.692,0.944c-0.674,0.244-1.374,0.412-2.101,0.506s-1.535,0.141-2.426,0.141
		c-1.799,0-3.248-0.343-4.346-1.028c-1.1-0.686-1.648-1.632-1.648-2.839c0-0.68,0.24-1.26,0.721-1.74s1.061-0.721,1.74-0.721
		s1.26,0.24,1.74,0.721s0.721,1.061,0.721,1.74C176.248,225.166,176.213,225.403,176.143,225.632z"/>
	<path fill="#CBC4C0" d="M201.912,217.845v7.778h1.758v2.813h-5.476l-0.782-1.828c-0.598,0.855-1.291,1.441-2.078,1.758
		c-0.789,0.316-1.889,0.475-3.301,0.475c-0.732,0-1.414-0.127-2.043-0.383c-0.631-0.254-1.167-0.602-1.609-1.041
		s-0.788-0.967-1.037-1.582s-0.373-1.274-0.373-1.978c0-1.213,0.475-2.22,1.424-3.019c0.949-0.801,2.162-1.2,3.639-1.2
		c1.189,0,2.174,0.113,2.953,0.339s1.447,0.584,2.004,1.076v-3.727c0-0.527-0.072-0.968-0.215-1.322
		c-0.145-0.354-0.359-0.627-0.646-0.818c-0.287-0.189-0.609-0.323-0.967-0.399s-0.785-0.114-1.283-0.114
		c-0.398,0-0.759,0.085-1.081,0.255c0.182,0.381,0.272,0.782,0.272,1.204c0,0.779-0.274,1.443-0.822,1.99
		c-0.548,0.549-1.211,0.822-1.99,0.822s-1.443-0.273-1.99-0.822c-0.549-0.547-0.822-1.211-0.822-1.99
		c0-0.398,0.077-0.773,0.232-1.125s0.371-0.659,0.646-0.923c0.234-0.246,0.478-0.467,0.729-0.663s0.569-0.393,0.954-0.59
		c0.383-0.195,0.801-0.358,1.252-0.487s0.991-0.233,1.621-0.312c0.63-0.08,1.32-0.119,2.07-0.119c0.973,0,1.887,0.144,2.742,0.431
		s1.594,0.686,2.215,1.195s1.11,1.137,1.468,1.881S201.912,216.972,201.912,217.845z M196.99,224.533v-1.213
		c-0.363-0.346-0.772-0.637-1.227-0.875c-0.454-0.236-0.874-0.355-1.261-0.355c-0.832,0-1.418,0.14-1.758,0.418
		s-0.51,0.728-0.51,1.349c0,0.744,0.146,1.292,0.439,1.644s0.838,0.527,1.635,0.527c0.451,0,0.921-0.145,1.411-0.436
		C196.209,225.303,196.633,224.949,196.99,224.533z"/>
</g>
</svg>
